<svg xmlns="http://www.w3.org/2000/svg" viewBox="0 0 179.26 246.9"><defs><style>.cls-1{fill:#fff;}.cls-2{fill:#00aef0;}</style></defs><g id="Warstwa_2" data-name="Warstwa 2"><g id="Layer_1" data-name="Layer 1"><path class="cls-1" d="M143.09,78.88c0,30.46-25.2,55.16-56.28,55.16s-56.28-24.7-56.28-55.16,25.2-55.15,56.28-55.15,56.28,24.69,56.28,55.15"/><path class="cls-2" d="M109.06,82.11c-7.77,0-14.06-9.76-14.06-21.8s6.29-21.8,14.06-21.8,14.06,9.76,14.06,21.8-6.29,21.8-14.06,21.8M86.82,125.64c-17.11,0-31.51-16.5-35.84-34.85,8.38,11.29,21.31,18.54,35.84,18.54s27.46-7.25,35.84-18.54c-4.34,18.35-18.74,34.85-35.84,34.85M64.58,38.51c7.76,0,14,9.76,14,21.8s-6.29,21.8-14,21.8-14.06-9.76-14.06-21.8,6.29-21.8,14.06-21.8M168.75,162.33a113.73,113.73,0,0,1-9.87-40.64V70.63c0-39-32.26-70.63-72.06-70.63S14.75,31.62,14.75,70.63v51.8a114.63,114.63,0,0,1-9.84,39.9C-5.73,186.4,3.08,183.53,11,181.55s25.49-9.7,31-.18S52,199.16,64.87,193.77s18.88-7.18,20.72-7.18h2.49c1.83,0,7.88,1.79,20.71,7.18s17.42-2.88,22.93-12.4,23.1-1.79,31,.18,16.69,4.85,6.05-19.22"/><path d="M10,224.85H18.7v12.29c0,6.21-3.17,9.75-9.28,9.75S.15,243.35.15,237.14V217c0-6.21,3.17-9.75,9.27-9.75s9.28,3.54,9.28,9.75v3.77H12.82v-4.16c0-2.77-1.25-3.82-3.23-3.82s-3.22,1-3.22,3.82v20.94c0,2.77,1.25,3.77,3.22,3.77s3.23-1,3.23-3.77v-7.14H10Z"/><polygon points="28.93 246.45 22.71 246.45 22.71 207.67 28.93 207.67 28.93 224.29 35.99 224.29 35.99 207.67 42.32 207.67 42.32 246.45 35.99 246.45 35.99 229.83 28.93 229.83 28.93 246.45"/><path d="M52.55,237.53c0,2.77,1.25,3.83,3.23,3.83S59,240.3,59,237.53V216.59c0-2.77-1.25-3.82-3.22-3.82s-3.23,1-3.23,3.82ZM46.34,217c0-6.2,3.33-9.75,9.44-9.75s9.44,3.55,9.44,9.75v20.16c0,6.21-3.34,9.76-9.44,9.76s-9.44-3.55-9.44-9.76Z"/><path d="M77.6,207.23c6,0,9.15,3.55,9.15,9.75v1.22H80.88v-1.61c0-2.77-1.14-3.82-3.12-3.82s-3.1,1-3.1,3.82c0,8,12.15,9.48,12.15,20.56,0,6.2-3.17,9.74-9.27,9.74s-9.27-3.54-9.27-9.74v-2.39h5.88v2.77c0,2.77,1.24,3.77,3.22,3.77s3.22-1,3.22-3.77c0-8-12.15-9.47-12.15-20.55,0-6.2,3.11-9.75,9.16-9.75"/><polygon points="88.08 207.67 107.3 207.67 107.3 213.21 100.8 213.21 100.8 246.45 94.58 246.45 94.58 213.21 88.08 213.21 88.08 207.67"/><polygon points="116.71 224.02 125.25 224.02 125.25 229.56 116.71 229.56 116.71 240.91 127.45 240.91 127.45 246.45 110.5 246.45 110.5 207.67 127.45 207.67 127.45 213.21 116.71 213.21 116.71 224.02"/><path d="M137.51,213.21v11.91H140c2.31,0,3.72-1,3.72-4.1V217.2c0-2.77-1-4-3.16-4Zm6.79,33.24c-.34-1-.57-1.61-.57-4.76v-6.1c0-3.6-1.24-4.93-4.07-4.93h-2.15v15.79H131.3V207.67h9.38c6.44,0,9.22,2.94,9.22,8.92v3c0,4-1.31,6.59-4.08,7.87,3.11,1.27,4.13,4.21,4.13,8.25v6a11.23,11.23,0,0,0,.68,4.71Z"/><polygon points="159.28 233.6 151.42 207.67 157.92 207.67 162.67 225.35 167.42 207.67 173.35 207.67 165.5 233.6 165.5 246.45 159.28 246.45 159.28 233.6"/><path d="M176.75,209v.77h.2c.19,0,.3-.07.3-.32v-.12c0-.23-.07-.33-.26-.33Zm.55,2.31a.92.92,0,0,1-.05-.39v-.3c0-.29-.1-.4-.33-.4h-.17v1.09h-.5v-2.76H177c.52,0,.75.24.75.72v.06a.62.62,0,0,1-.35.64c.26.1.35.33.35.66v.3a.78.78,0,0,0,.06.38Zm-.33.48a1.86,1.86,0,1,0-1.81-1.86,1.79,1.79,0,0,0,1.81,1.86m0-4.17a2.31,2.31,0,1,1-2.29,2.31,2.23,2.23,0,0,1,2.29-2.31"/></g></g></svg>