<?xml version="1.0" encoding="utf-8"?>
<!-- Generator: Adobe Illustrator 26.2.1, SVG Export Plug-In . SVG Version: 6.00 Build 0)  -->
<svg version="1.1" id="Warstwa_1" xmlns="http://www.w3.org/2000/svg" xmlns:xlink="http://www.w3.org/1999/xlink" x="0px" y="0px"
	 viewBox="0 0 362.7 215.6" style="enable-background:new 0 0 362.7 215.6;" xml:space="preserve">
<style type="text/css">
	.st0{clip-path:url(#SVGID_00000046299076855003227050000013724953133766910095_);}
	.st1{fill:#FFFFFF;}
	.st2{fill:none;stroke:#CFD2D3;stroke-width:1.06;}
	.st3{opacity:0.1;}
	.st4{fill:none;stroke:#00AEF0;}
	.st5{opacity:0.2;fill:#00AEF0;}
	.st6{opacity:0.51;}
	.st7{fill:none;stroke:#009FE3;stroke-width:0.79;}
	.st8{fill:#009FE3;}
	.st9{fill:#7F7F7F;}
	.st10{fill:#00AEF0;}
</style>
<g>
	<g id="Warstwa_2_00000124137604182059959360000017330474687485877130_">
		<g id="Layer_1">
			<g>
				<g>
					<defs>
						<rect id="SVGID_1_" y="1.4" width="362.7" height="214.2"/>
					</defs>
					<clipPath id="SVGID_00000097460290953321313090000009102217653597300384_">
						<use xlink:href="#SVGID_1_"  style="overflow:visible;"/>
					</clipPath>
					<g style="clip-path:url(#SVGID_00000097460290953321313090000009102217653597300384_);">
						<rect class="st1" width="362.7" height="215.6"/>
						<path class="st2" d="M-132.4,327l438.2-438.2 M295.8-111.2L-142.4,327 M285.8-111.2L-152.4,327 M275.8-111.2L-162.4,327
							 M265.8-111.2L-172.4,327 M255.8-111.2L-182.4,327 M245.8-111.2L-192.4,327 M235.8-111.2L-202.4,327 M225.8-111.2L-212.4,327
							 M215.8-111.2L-222.4,327 M205.8-111.2L-232.4,327 M195.8-111.2L-242.4,327 M185.8-111.2L-252.4,327 M175.8-111.2L-262.4,327
							 M165.8-111.2L-272.4,327 M145.8-111.2L-292.4,327 M135.8-111.2L-302.4,327 M-312.4,326l438.1-438.2 M155.8-111.2L-282.4,327
							 M-72.4,327l438.1-438.2 M-82.3,327l438.1-438.2 M-92.3,327l438.1-438.2 M335.8-111.2L-102.3,327 M325.8-111.2L-112.3,327
							 M315.8-111.2L-122.4,327 M-2.4,284.9l438.2-438.2 M-22.4,284.8l438.1-438.1 M47.7,284.8l438.1-438.1 M37.7,284.8l438.1-438.1
							 M27.6,284.8l438.1-438.1 M17.6,284.8l438.1-438.1 M7.7,284.8l438.1-438.1 M-12.4,284.8l438.1-438.1 M515.8-153.4L77.7,284.8
							 M505.8-153.4L67.7,284.8 M57.7,284.8l438.1-438.1 M565.8-153.4L127.7,284.8 M595.8-190.5L157.7,247.7 M635.8-190.5
							L197.7,247.7 M615.8-190.5L177.7,247.7 M625.8-190.5L187.7,247.7 M545.8-153.3L107.7,284.8 M705.8-190.5L267.7,247.7
							 M685.8-190.5L247.7,247.7 M665.8-190.5L227.7,247.7 M695.8-190.5L257.7,247.7 M735.8-190.5L297.7,247.7 M745.8-190.5
							L307.7,247.7 M317.7,247.7l438.1-438.2 M715.8-190.5L277.7,247.7 M725.8-190.5L287.7,247.7 M675.8-190.5L237.7,247.7
							 M655.8-190.5L217.7,247.7 M645.8-190.5L207.7,247.7 M535.8-153.3L97.7,284.8 M525.8-153.4L87.7,284.8"/>
					</g>
				</g>
			</g>
			<rect class="st3" width="362.7" height="215.6"/>
			<rect x="43.8" y="41.1" class="st4" width="278.8" height="130.8"/>
			<rect x="43.8" y="41.1" class="st5" width="278.8" height="130.8"/>
			<rect x="77.7" y="74.5" class="st1" width="211.5" height="64"/>
			<g class="st6">
				<line class="st7" x1="186.3" y1="43.7" x2="186.3" y2="71.8"/>
				<polygon class="st8" points="191.4,44.5 186.3,41.1 181.2,44.5 181.2,44.6 191.4,44.6 				"/>
				<polygon class="st8" points="191.4,71.1 186.3,74.5 181.2,71.1 181.2,71.1 				"/>
			</g>
			<g class="st6">
				<line class="st7" x1="320.2" y1="109.9" x2="291.6" y2="109.9"/>
				<polygon class="st8" points="319.4,115 322.6,109.9 319.4,104.7 319.4,104.7 				"/>
				<polygon class="st8" points="292.4,115 289.1,109.9 292.4,104.7 292.4,104.7 				"/>
			</g>
			<g class="st6">
				<line class="st7" x1="186.3" y1="169.4" x2="186.3" y2="141.2"/>
				<polygon class="st8" points="181.2,168.7 186.3,171.9 191.4,168.7 191.4,168.7 				"/>
				<polygon class="st8" points="181.2,141.9 186.3,138.7 191.4,141.9 191.4,141.9 				"/>
			</g>
			<g class="st6">
				<line class="st7" x1="46.2" y1="109.9" x2="75.1" y2="109.9"/>
				<polygon class="st8" points="47.1,104.7 43.8,109.9 47.1,115 47.1,115 				"/>
				<polygon class="st8" points="74.2,104.7 77.7,109.9 74.2,115 74.2,115 				"/>
			</g>
			<circle class="st1" cx="105" cy="100" r="17.9"/>
			<path class="st9" d="M289.1,106.9v-5.2h33.5v5.2h-14.4v5.9h14.4v5.3h-33.5v-5.3h14.4v-5.9H289.1z"/>
			<path class="st9" d="M43.8,106.7v-5.2h33.9v5.2H63.1v5.9h14.5v5.3H43.8v-5.3h14.5v-5.9H43.8z"/>
			<path class="st9" d="M102.8,171.7h-5.2v-33.3h5.2v14.3h5.9v-14.3h5.3v33.3h-5.3v-14.2h-5.9V171.7z"/>
			<path class="st9" d="M272.8,74.6h-5.2V41h5.2v14.4h5.9V41h5.3v33.6h-5.3V60.2h-5.9V74.6z"/>
			<path class="st1" d="M124.5,100.3c0.2,10.2-7.9,18.7-18.1,18.9c-10.2,0.2-18.7-7.9-18.9-18.1s7.9-18.7,18.1-18.9
				c0.1,0,0.3,0,0.4,0C116.1,82,124.4,90.2,124.5,100.3"/>
			<path class="st10" d="M113.3,101.3c-2.6,0-4.6-3.2-4.6-7.2s2.1-7.2,4.6-7.2s4.6,3.2,4.6,7.2S115.8,101.3,113.3,101.3 M106,115.6
				c-5.6,0-10.3-5.4-11.8-11.4c4.6,6.5,13.6,8,20.1,3.4c1.3-0.9,2.5-2.1,3.4-3.4C116.4,110.2,111.6,115.6,106,115.6 M98.7,87
				c2.6,0,4.6,3.2,4.6,7.2s-2.1,7.2-4.6,7.2S94,98.1,94,94.2S96.1,87,98.7,87 M132.9,127.7c-1.9-4.2-3-8.7-3.2-13.3V97.6
				c-0.3-13.1-11.1-23.5-24.2-23.2c-12.7,0.3-22.9,10.5-23.2,23.2v17c-0.3,4.5-1.4,9-3.2,13.1c-3.5,7.9-0.6,7,2,6.3
				s8.4-3.2,10.2-0.1s3.3,5.8,7.5,4.1s6.2-2.4,6.8-2.4h0.8c0.6,0,2.6,0.6,6.8,2.4s5.7-0.9,7.5-4.1s7.6-0.6,10.2,0.1
				S136.4,135.6,132.9,127.7"/>
			<path d="M148.1,101.8h7.5v10.6c0,5.4-2.7,8.4-8,8.4s-8-3.1-8-8.4V95c0-5.4,2.7-8.4,8-8.4s8,3.1,8,8.4v3.2h-5.1v-3.6
				c0-2.4-1.1-3.3-2.8-3.3s-2.8,0.9-2.8,3.3v18.1c0,2.4,1.1,3.3,2.8,3.3s2.8-0.9,2.8-3.3v-6.2h-2.4V101.8z"/>
			<polygon points="164.5,120.4 159.1,120.4 159.1,86.9 164.5,86.9 164.5,101.3 170.6,101.3 170.6,86.9 176.1,86.9 176.1,120.4 
				170.6,120.4 170.6,106.1 164.5,106.1 			"/>
			<path d="M184.9,112.7c0,2.4,1.1,3.3,2.8,3.3s2.8-0.9,2.8-3.3V94.6c0-2.4-1.1-3.3-2.8-3.3s-2.8,0.9-2.8,3.3V112.7z M179.5,95
				c0-5.4,2.9-8.4,8.2-8.4s8.2,3.1,8.2,8.4v17.4c0,5.4-2.9,8.4-8.2,8.4s-8.2-3.1-8.2-8.4V95z"/>
			<path d="M206.6,86.6c5.2,0,7.9,3.1,7.9,8.4v1h-5.1v-1.3c0-2.4-1-3.3-2.7-3.3s-2.7,0.9-2.7,3.3c0,6.9,10.5,8.2,10.5,17.8
				c0,5.4-2.7,8.4-8,8.4s-8-3.1-8-8.4v-2.1h5.1v2.4c0,2.4,1.1,3.3,2.8,3.3s2.8-0.9,2.8-3.3c0-6.9-10.5-8.2-10.5-17.8
				C198.7,89.6,201.3,86.6,206.6,86.6"/>
			<polygon points="215.6,86.9 232.2,86.9 232.2,91.7 226.6,91.7 226.6,120.4 221.2,120.4 221.2,91.7 215.6,91.7 			"/>
			<polygon points="240.4,101.1 247.7,101.1 247.7,105.8 240.4,105.8 240.4,115.7 249.6,115.7 249.6,120.4 235,120.4 235,86.9 
				249.6,86.9 249.6,91.7 240.4,91.7 			"/>
			<path d="M258.3,91.7V102h2.1c2,0,3.2-0.9,3.2-3.6v-3.3c0-2.4-0.8-3.4-2.7-3.4H258.3z M264.2,120.4c-0.4-1.3-0.6-2.7-0.5-4.1V111
				c0-3.1-1.1-4.3-3.5-4.3h-1.9v13.7H253V86.9h8.1c5.6,0,8,2.5,8,7.7v2.6c0,3.4-1.1,5.7-3.5,6.8c2.7,1.1,3.6,3.6,3.6,7.1v5.2
				c-0.1,1.4,0.1,2.8,0.6,4.1C269.8,120.4,264.2,120.4,264.2,120.4z"/>
			<polygon points="277.1,109.3 270.4,86.9 276,86.9 280.1,102.2 284.2,86.9 289.3,86.9 282.5,109.3 282.5,120.4 277.1,120.4 			"/>
			<path d="M292.2,88.1v0.7h0.2c0.2,0,0.3-0.1,0.3-0.3v-0.1c0-0.2-0.1-0.3-0.2-0.3C292.5,88.1,292.2,88.1,292.2,88.1z M292.7,90.1
				c0-0.1,0-0.2,0-0.3v-0.3c0-0.2-0.1-0.3-0.3-0.3h-0.1v0.9h-0.4v-2.4h0.7c0.4,0,0.6,0.2,0.6,0.6l0,0c0,0.2-0.1,0.5-0.3,0.6
				c0.2,0.1,0.3,0.3,0.3,0.6v0.2c0,0.1,0,0.2,0,0.3L292.7,90.1z M292.4,90.5c0.9,0,1.6-0.7,1.6-1.6s-0.7-1.6-1.6-1.6
				s-1.6,0.7-1.6,1.6l0,0C290.8,89.8,291.5,90.5,292.4,90.5L292.4,90.5 M292.4,86.9c1.1,0,2,0.9,2,2s-0.9,2-2,2s-2-0.9-2-2
				s0.8-2,1.9-2H292.4"/>
		</g>
	</g>
</g>
</svg>
